<?xml version="1.0" encoding="UTF-8" standalone="no"?>
<!-- Created with Inkscape (http://www.inkscape.org/) -->

<svg
   xmlns:dc="http://purl.org/dc/elements/1.1/"
   xmlns:cc="http://creativecommons.org/ns#"
   xmlns:rdf="http://www.w3.org/1999/02/22-rdf-syntax-ns#"
   xmlns:svg="http://www.w3.org/2000/svg"
   xmlns="http://www.w3.org/2000/svg"
   xmlns:sodipodi="http://sodipodi.sourceforge.net/DTD/sodipodi-0.dtd"
   xmlns:inkscape="http://www.inkscape.org/namespaces/inkscape"
   width="90.000053"
   height="54.67923"
   id="svg2"
   version="1.1"
   inkscape:version="0.48.2 r9819"
   sodipodi:docname="ram.svg">
  <defs
     id="defs4" />
  <sodipodi:namedview
     id="base"
     pagecolor="#ffffff"
     bordercolor="#666666"
     borderopacity="1.0"
     inkscape:pageopacity="0.0"
     inkscape:pageshadow="2"
     inkscape:zoom="9.8392022"
     inkscape:cx="26.909129"
     inkscape:cy="27.339615"
     inkscape:document-units="px"
     inkscape:current-layer="layer1"
     showgrid="false"
     fit-margin-top="0"
     fit-margin-left="0"
     fit-margin-right="0"
     fit-margin-bottom="0"
     inkscape:window-width="1238"
     inkscape:window-height="756"
     inkscape:window-x="42"
     inkscape:window-y="0"
     inkscape:window-maximized="1" />
  <metadata
     id="metadata7">
    <rdf:RDF>
      <cc:Work
         rdf:about="">
        <dc:format>image/svg+xml</dc:format>
        <dc:type
           rdf:resource="http://purl.org/dc/dcmitype/StillImage" />
        <dc:title></dc:title>
      </cc:Work>
    </rdf:RDF>
  </metadata>
  <g
     inkscape:label="Layer 1"
     inkscape:groupmode="layer"
     id="layer1"
     transform="translate(-15.599984,-167.47087)">
    <path
       style="fill:#073064;fill-opacity:1"
       d="m 57.364651,219.54238 c -0.141631,-0.14163 -0.210237,-0.27469 -0.238874,-0.46329 -0.0221,-0.14553 -0.05416,-0.33776 -0.07127,-0.42718 -0.01711,-0.0894 -0.217917,-0.37913 -0.446252,-0.6438 -0.70477,-0.81692 -1.053242,-1.47243 -1.053242,-1.98129 0,-0.28682 0.205707,-0.70766 0.366448,-0.7497 0.268725,-0.0703 0.40298,0.12871 0.487266,0.72218 0.05312,0.37403 0.126259,0.48027 0.330608,0.48027 0.09639,0 0.175257,-0.0167 0.175257,-0.0371 0,-0.0204 -0.07979,-0.19995 -0.17732,-0.39901 -0.20796,-0.42445 -0.321652,-0.97315 -0.269378,-1.30005 0.06464,-0.4042 0.28195,-0.81722 0.761241,-1.44681 0.536544,-0.70479 0.686952,-1.00807 0.732271,-1.47656 0.01862,-0.19233 0.07615,-0.38591 0.134858,-0.45369 0.05632,-0.065 0.190099,-0.28541 0.297283,-0.48976 0.217301,-0.41428 0.515115,-0.71002 0.765413,-0.76008 0.175604,-0.0352 0.297454,-0.22309 0.297454,-0.45886 0,-0.0751 -0.07947,-0.29337 -0.176588,-0.48489 -0.09712,-0.19153 -0.176927,-0.43109 -0.177337,-0.53237 -0.0012,-0.25413 -0.180058,-0.45826 -0.596645,-0.6803 -0.194734,-0.10379 -0.42668,-0.27096 -0.515439,-0.37148 -0.08876,-0.10052 -0.234121,-0.22993 -0.323034,-0.28758 -0.195504,-0.12675 -0.205846,-0.28475 -0.04344,-0.66365 0.155156,-0.36196 0.151014,-0.60771 -0.0132,-0.78249 -0.112164,-0.1194 -0.131507,-0.20654 -0.132054,-0.59493 -7.05e-4,-0.53178 0.08943,-0.8307 0.334963,-1.11036 0.208481,-0.23744 0.494359,-0.27086 0.787568,-0.0921 0.0986,0.0601 0.404509,0.14074 0.67979,0.17913 0.275286,0.0383 0.573669,0.0843 0.663076,0.10205 0.0894,0.0178 0.162558,0.006 0.162558,-0.025 0,-0.0314 -0.09828,-0.0757 -0.218405,-0.0982 -0.424144,-0.0796 -0.807545,-0.33156 -1.362844,-0.89573 -0.300734,-0.30553 -0.546335,-0.52199 -0.545781,-0.481 4.7e-4,0.041 0.0799,0.20753 0.17633,0.37009 0.227916,0.38422 0.224282,0.44334 -0.02725,0.44334 -0.437948,0 -0.570947,-0.47401 -0.327419,-1.16689 0.127152,-0.36177 0.15174,-0.52242 0.05438,-0.35525 -0.102066,0.17523 -0.223347,0.1176 -0.292435,-0.13897 -0.103697,-0.38509 -0.140995,-0.21611 -0.05861,0.26553 0.09054,0.52931 0.05825,1.14745 -0.06483,1.24096 -0.05332,0.0405 -0.0915,0.18469 -0.099,0.37379 -0.01557,0.39263 -0.213489,0.92329 -0.4333,1.16176 l -0.171024,0.18554 -0.114022,-0.13485 c -0.06272,-0.0741 -0.143648,-0.28697 -0.179857,-0.47289 -0.0362,-0.18593 -0.07994,-0.4112 -0.09717,-0.50062 -0.05724,-0.29694 -0.15378,-0.18087 -0.11061,0.13301 0.03259,0.23696 0.02372,0.29556 -0.0447,0.29556 -0.111071,0 -0.571802,-0.33411 -0.614628,-0.44572 -0.06799,-0.17719 -0.133449,-0.0736 -0.231244,0.36597 -0.07966,0.35804 -0.08766,0.50888 -0.03843,0.72404 0.0342,0.14948 0.05328,0.28068 0.04239,0.29158 -0.01089,0.0109 -0.137952,-0.0324 -0.282355,-0.0963 -0.524757,-0.23213 -0.73953,-0.72805 -0.636406,-1.4695 0.07347,-0.52826 0.217677,-0.8794 0.529135,-1.28848 0.261523,-0.3435 0.762467,-0.85982 0.834203,-0.85982 0.0719,0 0.412476,-0.2972 0.412476,-0.35993 0,-0.12007 -0.194099,-0.039 -0.543116,0.22693 -0.55225,0.42073 -0.917104,0.80507 -0.963111,1.01454 -0.07946,0.36176 -0.579382,0.77242 -0.825397,0.67802 -0.0752,-0.0289 -0.09197,0.0155 -0.09197,0.24328 0,0.42207 0.152629,0.92776 0.527858,1.7489 l 0.339937,0.74393 -0.367241,0.36699 c -0.215163,0.21502 -0.447421,0.52496 -0.560859,0.74845 -0.187878,0.37014 -0.192459,0.39654 -0.154511,0.89024 0.03564,0.46359 0.02329,0.55819 -0.139042,1.06493 -0.09798,0.30589 -0.178151,0.58956 -0.178151,0.63039 0,0.0408 -0.0665,0.17211 -0.14778,0.29173 -0.187901,0.27651 -0.186319,0.40537 0.007,0.57349 0.135351,0.11768 0.151071,0.16792 0.124979,0.39938 -0.05344,0.47416 -0.545911,0.83917 -1.203422,0.89195 -0.564032,0.0453 -0.774072,-0.0125 -0.820878,-0.22555 -0.06884,-0.31339 0.03179,-0.62647 0.37273,-1.15971 0.286042,-0.44738 0.332674,-0.55977 0.326866,-0.78783 -0.01904,-0.74747 0.203326,-1.93221 0.48263,-2.57137 0.07103,-0.16256 0.344888,-0.54019 0.608562,-0.83918 0.44094,-0.5 0.705247,-0.88215 0.649015,-0.93838 -0.01251,-0.0125 -0.125254,0.11164 -0.250524,0.2759 -0.252311,0.33085 -0.554727,0.58542 -0.695461,0.58542 -0.05046,0 -0.1743,-0.094 -0.275203,-0.20895 -0.143261,-0.16316 -0.18346,-0.26365 -0.18346,-0.45859 0,-0.24655 0.184902,-0.67606 0.422219,-0.98079 0.152671,-0.19604 0.13753,-0.28913 -0.02322,-0.14272 -0.243408,0.2217 -0.401322,0.27716 -0.502134,0.17634 -0.116941,-0.11694 -0.02842,-0.38567 0.220393,-0.66905 0.203453,-0.23172 0.473855,-0.73728 0.473855,-0.88593 0,-0.17555 -0.224091,0.0793 -0.52443,0.59651 -0.256936,0.44242 -0.27467,0.46005 -0.291451,0.28955 -0.01268,-0.12869 0.06929,-0.34325 0.281591,-0.7371 0.296906,-0.55081 0.522281,-0.82156 0.683889,-0.82156 0.06139,0 0.07453,-0.0468 0.04899,-0.17451 -0.02291,-0.1146 0.01167,-0.28683 0.100721,-0.50172 0.07459,-0.17997 0.115377,-0.34747 0.09063,-0.37222 -0.02475,-0.0248 -0.147024,0.0747 -0.271719,0.22088 -0.251956,0.29548 -0.348183,0.28417 -0.251886,-0.0296 l 0.06348,-0.20684 -11.669111,0 -11.669109,0 0,-0.23644 0,-0.23645 30.797411,0 30.797409,0 0,0.23645 0,0.23644 -10.367017,0 -10.367014,0 -0.381778,0.40471 c -0.209977,0.22258 -0.431809,0.52567 -0.492962,0.67352 -0.102751,0.24843 -0.130454,0.27146 -0.365201,0.30364 -0.13971,0.0191 -0.480019,0.12837 -0.756245,0.24271 -0.668233,0.27661 -0.920771,0.27587 -1.327515,-0.004 -0.350021,-0.24078 -0.683887,-0.27978 -0.999214,-0.11671 -0.389206,0.20126 -0.18646,0.36579 0.554526,0.44999 0.274598,0.0312 0.675569,0.0976 0.891045,0.14758 0.215474,0.05 0.785518,0.14084 1.266762,0.20191 0.654962,0.0832 0.957051,0.14988 1.201322,0.26544 0.298175,0.14105 0.349758,0.14848 0.597826,0.086 0.517998,-0.13043 0.979356,-0.53947 0.979356,-0.86828 0,-0.25143 0.456948,-0.48715 0.939836,-0.48485 0.473204,0.003 1.010864,0.34776 1.010864,0.64959 0,0.0819 0.06537,0.10835 0.319388,0.12942 0.274331,0.0228 0.401632,0.0818 0.902382,0.41833 0.693414,0.46607 0.934862,0.57473 1.276999,0.57473 0.21231,0 0.287646,0.033 0.438867,0.19211 0.195407,0.20564 0.370382,0.5248 0.489499,0.89289 l 0.07375,0.22787 -0.293147,0.30414 c -0.161229,0.16727 -0.356934,0.39724 -0.434896,0.51102 -0.07796,0.11379 -0.254935,0.31539 -0.393275,0.44799 -0.138339,0.13261 -0.251523,0.28146 -0.251523,0.3308 0,0.0494 -0.123214,0.20185 -0.273806,0.3389 l -0.273806,0.24918 0.03101,0.38637 c 0.02745,0.34195 0.05504,0.41121 0.239931,0.60226 0.297163,0.30707 0.40433,0.61698 0.38301,1.1076 -0.01671,0.38466 -0.02792,0.41336 -0.205545,0.52602 -0.103328,0.0656 -0.222163,0.18144 -0.26408,0.25753 -0.04192,0.0761 -0.170184,0.18632 -0.285033,0.24494 -0.114847,0.0587 -0.259488,0.16261 -0.321422,0.23109 -0.06193,0.0685 -0.148626,0.12451 -0.192653,0.12451 -0.04403,0 -0.165948,0.0821 -0.270944,0.18244 -0.104995,0.10034 -0.284309,0.22139 -0.398469,0.269 -0.114161,0.0476 -0.287369,0.16183 -0.384904,0.25382 -0.09754,0.092 -0.236284,0.19749 -0.308331,0.23445 -0.08091,0.0415 -0.156269,0.16288 -0.197104,0.31743 -0.0723,0.27365 -0.346497,0.74835 -0.579742,1.00367 -0.08156,0.0892 -0.324652,0.26888 -0.540209,0.39913 -0.215557,0.13024 -0.447025,0.31132 -0.514371,0.40242 -0.07416,0.10031 -0.267981,0.22263 -0.491546,0.31022 -0.329086,0.12892 -0.381093,0.17236 -0.479705,0.40072 -0.133568,0.30931 -0.133333,0.30544 -0.01845,0.30544 0.197386,0 0.01442,0.10393 -0.253102,0.14376 -1.019016,0.15173 -1.037946,0.15198 -1.922905,0.0264 -0.51843,-0.0736 -0.937909,-0.1055 -1.03446,-0.0788 -0.08933,0.0248 -0.224282,0.0388 -0.299896,0.0311 -0.136419,-0.0138 -0.137173,-0.0103 -0.09707,0.44936 0.05485,0.62872 -0.02158,0.7288 -0.596828,0.78161 -0.238484,0.0219 -0.471105,0.0805 -0.556126,0.14008 -0.168731,0.11829 -0.419405,0.13393 -0.520825,0.0325 -0.09561,-0.0956 -0.122262,-0.0552 -0.184952,0.28034 -0.03641,0.19493 -0.102552,0.32837 -0.202671,0.40893 -0.273416,0.22 -0.673774,0.44469 -0.792346,0.44469 -0.180281,0 -0.415167,-0.21683 -0.461017,-0.42559 l -0.04123,-0.18771 -0.125869,0.26232 c -0.06923,0.14427 -0.166951,0.26986 -0.217161,0.27909 -0.05021,0.009 -0.192855,-0.071 -0.316986,-0.17833 -0.187442,-0.16203 -0.234187,-0.2488 -0.275778,-0.51192 -0.02754,-0.17425 -0.06662,-0.33335 -0.08683,-0.35357 -0.02021,-0.0202 -0.09,0.0363 -0.155091,0.1257 -0.06508,0.0893 -0.162671,0.16234 -0.216853,0.16222 -0.185084,-4.7e-4 -0.473258,-0.22854 -0.632978,-0.50108 -0.172207,-0.29385 -0.24696,-0.30995 -0.376087,-0.081 -0.110085,0.1952 -0.0546,0.39092 0.208533,0.73565 0.208854,0.27362 0.214555,0.29495 0.226218,0.8469 0.01472,0.69628 -0.0258,0.83266 -0.246863,0.83091 -0.283073,-0.003 -0.623801,-0.2045 -1.004077,-0.59602 -0.201936,-0.20792 -0.40144,-0.42036 -0.443341,-0.4721 -0.0419,-0.0517 -0.209184,-0.16931 -0.371742,-0.26127 -0.162559,-0.092 -0.505991,-0.30756 -0.763183,-0.4791 -0.467504,-0.31181 -0.467679,-0.31187 -0.677626,-0.22414 -0.379078,0.15838 -0.598558,0.44933 -0.598558,0.79346 0,0.10337 0.118636,0.41245 0.270579,0.70493 0.197962,0.38105 0.273323,0.59648 0.280784,0.80272 0.01298,0.35863 -0.07814,0.39521 -0.337755,0.13559 z m -2.192103,-9.36382 c -0.470123,-0.17211 -0.648339,-0.46148 -0.823295,-1.33679 -0.05009,-0.25062 -0.129501,-0.54764 -0.176459,-0.66003 -0.155011,-0.37099 0.04914,-0.85426 0.496807,-1.17605 0.251181,-0.18056 0.456686,-0.20272 0.702237,-0.0758 0.242967,0.12564 0.354583,0.33401 0.505595,0.94386 0.07429,0.30003 0.168347,0.60767 0.209009,0.68365 0.04567,0.0853 0.06127,0.24509 0.0408,0.41785 -0.02284,0.19291 -0.0073,0.3138 0.05011,0.38959 0.09972,0.13165 0.111781,0.45559 0.02313,0.62123 -0.07641,0.14277 -0.400309,0.2883 -0.628799,0.28251 -0.09045,-0.003 -0.270069,-0.0428 -0.399146,-0.0901 z m -7.417076,-1.8953 c -0.168453,-0.21415 -0.08028,-0.5011 0.179283,-0.58348 0.211942,-0.0673 0.199924,-0.29019 -0.03628,-0.67286 -0.24497,-0.39688 -0.238774,-0.51264 0.03292,-0.6152 0.217164,-0.082 0.210483,-0.2396 -0.01125,-0.26534 -0.232131,-0.027 -0.568536,0.29226 -0.657152,0.62358 -0.0764,0.28568 -0.379244,0.60635 -0.572638,0.60635 -0.152125,0 -0.297723,-0.15673 -0.297723,-0.32047 0,-0.074 0.08645,-0.25174 0.192113,-0.39478 0.179722,-0.24333 0.192114,-0.29115 0.192114,-0.74147 0,-0.54094 0.05961,-0.65276 0.455765,-0.85495 0.339555,-0.17329 0.392075,-0.15191 0.414607,0.16885 l 0.01972,0.28079 0.137123,-0.28771 c 0.140401,-0.29458 0.370836,-0.53344 0.791719,-0.82065 0.378087,-0.258 0.456742,-0.22751 0.457577,0.17734 7.05e-4,0.41798 0.09031,0.75521 0.406927,1.53422 0.134844,0.33176 0.26807,0.72579 0.296059,0.87561 0.0456,0.24407 0.03559,0.2906 -0.09618,0.44719 -0.206139,0.245 -0.598427,0.46095 -0.916491,0.50454 -0.246049,0.0337 -0.2778,0.0572 -0.35991,0.26625 -0.08075,0.20558 -0.111466,0.22925 -0.297412,0.22925 -0.154043,0 -0.239123,-0.0404 -0.330905,-0.15706 z m 3.80241,-0.81539 c -0.04094,-0.10668 0.174759,-0.69918 0.265549,-0.72943 0.09632,-0.0321 0.08398,0.3637 -0.01902,0.61021 -0.08988,0.2151 -0.19098,0.26399 -0.246533,0.11922 z m 4.785822,-1.116 c -0.193463,-0.20043 -0.311333,-0.38024 -0.336848,-0.51385 -0.02158,-0.11304 -0.158679,-0.3765 -0.304654,-0.58548 -0.297954,-0.42654 -0.320231,-0.54057 -0.140687,-0.72011 l 0.12472,-0.12473 0.343065,0.33949 c 0.514913,0.50954 0.672196,0.83736 0.675622,1.40817 0.0016,0.25507 -0.01216,0.473 -0.03042,0.48428 -0.01826,0.0113 -0.167118,-0.11821 -0.330801,-0.28777 z m 0.88462,0.014 c -0.07633,-0.0763 -0.04386,-0.2097 0.08865,-0.36397 0.142647,-0.16609 0.196825,-0.12111 0.177367,0.14727 -0.01883,0.25977 -0.131313,0.3514 -0.266013,0.2167 z m -7.566633,-0.53672 c -0.332618,-0.16443 -0.432702,-0.88838 -0.191654,-1.38632 0.132376,-0.27345 0.405467,-0.49445 0.611494,-0.49485 0.108349,-2.4e-4 0.108616,-0.005 0.007,-0.11686 -0.10179,-0.11248 -0.0997,-0.12857 0.0587,-0.45234 0.200929,-0.41069 0.685579,-0.89757 1.339638,-1.34582 0.489373,-0.33539 0.491897,-0.33631 0.510639,-0.18514 0.03147,0.25382 -0.132716,0.69775 -0.495787,1.34053 l -0.345471,0.61162 -0.381778,0.0127 c -0.209979,0.007 -0.410641,0.0436 -0.445914,0.0815 -0.04854,0.0521 0.02575,0.0599 0.305313,0.0325 l 0.36945,-0.0362 -0.0025,0.16165 c -0.0042,0.25855 -0.134386,0.55649 -0.394739,0.90305 -0.133307,0.17744 -0.280621,0.45562 -0.327369,0.61818 -0.07926,0.2756 -0.09856,0.29639 -0.286046,0.30779 -0.110579,0.006 -0.259504,-0.0167 -0.330948,-0.052 z m -1.469998,-2.85227 c -0.105648,-0.0772 -0.105557,-0.087 0.0031,-0.32784 0.19521,-0.43289 0.883234,-0.89927 0.765651,-0.51899 -0.06363,0.20578 -0.265702,0.594 -0.372076,0.71483 -0.158307,0.1798 -0.277177,0.21936 -0.396648,0.132 z m 16.59526,-4.1841 c -0.220034,-0.0401 -0.305725,-0.0806 -0.284934,-0.13477 0.01637,-0.0426 0.06126,-0.23773 0.09979,-0.43358 l 0.07006,-0.35609 0.429793,0.0102 c 0.486581,0.0116 0.604562,-0.0543 0.806506,-0.44994 l 0.114173,-0.22371 -0.924164,-2.14078 c -0.508289,-1.17743 -0.937751,-2.17403 -0.954357,-2.21467 -0.02312,-0.0566 0.129072,-0.0739 0.649598,-0.0739 0.592287,0 0.685101,0.0133 0.721061,0.10344 0.02271,0.0569 0.267187,0.70196 0.543305,1.43347 0.276119,0.73152 0.520327,1.34922 0.542682,1.37268 0.02235,0.0235 0.269376,-0.61494 0.54894,-1.41868 l 0.508295,-1.46135 0.664976,-0.0168 c 0.617658,-0.0156 0.662064,-0.009 0.624017,0.0887 -0.02253,0.058 -0.439699,1.15616 -0.927048,2.44037 -0.487349,1.28421 -0.947211,2.4697 -1.021917,2.63444 -0.351834,0.77577 -1.069438,1.04875 -2.210772,0.84096 z m -40.90999,-1.52957 c -0.699632,-0.0906 -1.295448,-0.5113 -1.543373,-1.08968 -0.261664,-0.61045 -0.29746,-1.45882 -0.09026,-2.13923 0.179189,-0.58843 0.720818,-1.12174 1.314507,-1.29434 0.473508,-0.13765 1.35819,-0.0925 1.774755,0.0905 0.357996,0.15732 0.74463,0.54902 0.909251,0.92118 0.109255,0.24699 0.224329,0.90938 0.228188,1.31349 l 0.0018,0.19113 -1.551693,0.0157 -1.551692,0.0158 0.01914,0.17734 c 0.0275,0.25469 0.193035,0.56578 0.369658,0.69468 0.459883,0.3356 1.191878,0.19439 1.458084,-0.2813 0.05985,-0.10693 0.08685,-0.10151 0.585728,0.11745 0.287645,0.12626 0.532543,0.23649 0.544216,0.24496 0.03459,0.0251 -0.239922,0.39539 -0.402671,0.54314 -0.281449,0.25551 -0.682141,0.41743 -1.190811,0.48122 -0.271461,0.0341 -0.494264,0.0585 -0.495117,0.0544 -8.23e-4,-0.005 -0.171737,-0.0295 -0.379741,-0.0565 z m 1.294429,-2.89456 c 0,-0.21762 -0.114942,-0.45173 -0.312285,-0.63604 -0.20762,-0.19391 -0.706978,-0.23674 -0.988182,-0.0848 -0.22013,0.11898 -0.472896,0.52831 -0.472896,0.76583 0,0.13493 0.0022,0.13526 0.886681,0.13526 l 0.886682,0 0,-0.18028 z m 9.753498,2.89186 c -0.634964,-0.10317 -1.052102,-0.56276 -1.069211,-1.17802 -0.01532,-0.55103 0.05489,-0.76135 0.353836,-1.05995 0.322796,-0.32244 0.618418,-0.42242 1.705503,-0.57681 l 0.724123,-0.10284 0,-0.2188 c 0,-0.34492 -0.199979,-0.53286 -0.602506,-0.56624 -0.393236,-0.0326 -0.710015,0.0952 -0.858303,0.34619 -0.108554,0.18376 -0.06632,0.1838 -0.755221,-7.1e-4 -0.217546,-0.0583 -0.360756,-0.12986 -0.371526,-0.18578 -0.02622,-0.13614 0.309074,-0.56555 0.570412,-0.73052 0.412671,-0.26051 0.840391,-0.3469 1.568886,-0.31686 0.522608,0.0216 0.712306,0.0544 0.937668,0.16217 0.325635,0.15578 0.610749,0.47255 0.693718,0.77073 0.03167,0.1138 0.05835,0.80541 0.05931,1.53692 0.0016,1.22514 0.02284,1.50674 0.141556,1.87681 0.04231,0.13192 0.03784,0.133 -0.54976,0.133 l -0.592426,0 -0.03802,-0.20264 -0.03802,-0.20264 -0.275,0.19504 c -0.438927,0.31128 -0.988218,0.4211 -1.605026,0.32089 z m 1.216445,-0.9321 c 0.378783,-0.17203 0.497806,-0.36684 0.497806,-0.81478 l 0,-0.37894 -0.192114,0.0315 c -1.063156,0.17427 -1.223001,0.2326 -1.339764,0.48886 -0.124154,0.2725 -0.0339,0.60607 0.193821,0.71633 0.198378,0.0961 0.576764,0.0767 0.840251,-0.043 z m 10.931095,0.93627 c -0.908862,-0.11839 -1.540253,-0.67762 -1.772723,-1.57014 -0.17265,-0.66285 -0.0908,-1.39659 0.222023,-1.99004 0.213909,-0.40583 0.480722,-0.65438 0.927324,-0.86385 0.298308,-0.13992 0.394322,-0.15376 1.066714,-0.15376 0.684449,0 0.762864,0.0118 1.06402,0.16045 0.178814,0.0882 0.420099,0.23919 0.536187,0.33545 0.252849,0.20967 0.544546,0.74315 0.647008,1.18331 0.08941,0.38407 0.0455,1.15803 -0.0875,1.54241 -0.118553,0.34263 -0.471159,0.80747 -0.771247,1.01673 -0.422428,0.29457 -1.146374,0.42872 -1.831811,0.33944 z m 0.924315,-1.07226 c 0.333233,-0.18729 0.534374,-0.62029 0.537735,-1.15763 0.0047,-0.76227 -0.254789,-1.2215 -0.779224,-1.37862 -0.687151,-0.20588 -1.261085,0.3682 -1.268501,1.26883 -0.0034,0.41353 0.101967,0.83518 0.255703,1.0232 0.307667,0.37627 0.836224,0.47919 1.254287,0.24422 z m 6.546966,1.07127 c -1.322365,-0.14669 -2.114878,-1.37919 -1.829151,-2.84467 0.21259,-1.09037 0.913008,-1.68934 2.044683,-1.74854 0.559103,-0.0292 1.02082,0.0419 1.357339,0.20904 0.777961,0.38647 1.22112,1.30151 1.133326,2.34011 -0.122974,1.45478 -1.134023,2.21846 -2.706197,2.04406 z m 0.756232,-1.00445 c 0.516854,-0.19584 0.782015,-0.84751 0.659835,-1.62165 -0.07393,-0.46841 -0.280315,-0.77576 -0.62261,-0.92717 -0.553411,-0.2448 -1.14948,0.0537 -1.324245,0.66331 -0.09684,0.33776 -0.09573,0.90642 0.0024,1.20966 0.186579,0.57678 0.755775,0.87623 1.284653,0.67585 z m 6.659136,1.00858 c -0.754682,-0.0827 -1.354387,-0.54663 -1.623638,-1.2561 -0.196628,-0.51811 -0.195496,-1.50503 0.0024,-2.01149 0.352608,-0.90283 1.024076,-1.34289 2.049019,-1.34289 0.702239,0 1.179737,0.16019 1.526771,0.51219 0.257922,0.26163 0.545043,0.83318 0.458689,0.91309 -0.02149,0.0199 -0.277591,0.0947 -0.569121,0.16632 -0.503062,0.12353 -0.533922,0.12487 -0.6059,0.0264 -0.04171,-0.057 -0.07584,-0.13356 -0.07584,-0.17003 0,-0.10514 -0.310767,-0.37484 -0.513239,-0.44542 -0.253501,-0.0883 -0.64454,0.0228 -0.848514,0.24109 -0.211871,0.22681 -0.324044,0.64449 -0.313317,1.16665 0.01068,0.5197 0.185145,0.92166 0.48679,1.12153 0.466672,0.30922 1.157166,0.0282 1.277557,-0.51992 0.02108,-0.096 0.05618,-0.17498 0.07797,-0.17551 0.02181,-4.7e-4 0.285692,0.0579 0.586426,0.12986 0.369988,0.0885 0.546787,0.15782 0.546787,0.21435 0,0.0459 -0.08523,0.24345 -0.189411,0.4389 -0.398428,0.74753 -1.221275,1.1062 -2.273345,0.99094 z m 8.610413,0.002 c -0.878598,-0.11349 -1.473599,-0.65825 -1.681245,-1.53926 -0.214881,-0.91172 -0.02211,-1.84981 0.503029,-2.44791 0.376122,-0.42838 0.884013,-0.62349 1.625607,-0.62449 0.886373,-9.1e-4 1.524408,0.31117 1.809874,0.88605 0.267827,0.53934 0.271249,0.53233 -0.33612,0.68816 -0.292606,0.0751 -0.553317,0.13714 -0.579361,0.13795 -0.02604,7e-4 -0.08382,-0.085 -0.12839,-0.19066 -0.117469,-0.27847 -0.294668,-0.44377 -0.561344,-0.52367 -0.197066,-0.059 -0.276907,-0.054 -0.501576,0.0319 -0.446794,0.17062 -0.645197,0.58695 -0.641331,1.34575 0.0028,0.54596 0.171513,0.94821 0.484821,1.15581 0.470614,0.31183 1.13673,0.033 1.279424,-0.53553 0.0483,-0.19243 0.04686,-0.19236 0.692091,-0.03 0.373932,0.0942 0.517035,0.15573 0.516525,0.22227 -4.7e-4,0.0506 -0.08911,0.25164 -0.197173,0.44671 -0.411708,0.74324 -1.266021,1.10851 -2.284831,0.9769 z m 6.130864,-0.009 c -0.682345,-0.0951 -1.22293,-0.46587 -1.483152,-1.01722 -0.406264,-0.86078 -0.334058,-2.1231 0.158371,-2.76871 0.471992,-0.61882 1.013112,-0.84515 1.926023,-0.80557 1.163116,0.0505 1.792187,0.61081 1.955755,1.74219 0.03211,0.22212 0.05892,0.50361 0.05956,0.62553 l 0.0012,0.22168 -1.533428,0 c -0.843385,0 -1.545097,0.0199 -1.559362,0.0444 -0.01427,0.0244 0.0081,0.17645 0.04973,0.33791 0.201243,0.78077 1.274297,0.98146 1.716708,0.32109 0.063,-0.094 0.135533,-0.17106 0.161176,-0.17115 0.03931,-1.2e-4 0.975008,0.40613 1.038618,0.45097 0.03958,0.0279 -0.255423,0.40401 -0.457132,0.58279 -0.409535,0.36301 -1.256274,0.54457 -2.034043,0.43617 z m 1.317262,-2.89173 c 0,-0.41101 -0.318961,-0.75286 -0.75009,-0.80392 -0.51645,-0.0612 -0.859491,0.19711 -1.012762,0.76253 l -0.06009,0.22167 0.911474,0 0.911472,0 0,-0.18028 z m 5.083643,2.90098 c -0.898923,-0.11611 -1.493918,-0.67253 -1.685353,-1.57608 -0.267972,-1.26481 0.139802,-2.3472 1.059556,-2.81248 0.302281,-0.15292 0.447549,-0.18666 0.908808,-0.21104 0.824748,-0.0436 1.24207,0.0849 1.672068,0.51493 0.344782,0.34479 0.601791,0.8696 0.451126,0.92119 -0.140485,0.0481 -1.03798,0.26544 -1.096116,0.26544 -0.03263,0 -0.07605,-0.0761 -0.09647,-0.16906 -0.09728,-0.44287 -0.631837,-0.68931 -1.094054,-0.50437 -0.420736,0.16834 -0.614962,0.59704 -0.607447,1.34074 0.0056,0.55131 0.1699,0.94361 0.481846,1.1503 0.470609,0.31184 1.136725,0.033 1.279422,-0.53553 0.02195,-0.0874 0.05696,-0.15937 0.07782,-0.1599 0.02088,-4.7e-4 0.283981,0.0579 0.584715,0.12986 0.353282,0.0845 0.546787,0.1589 0.546787,0.2102 0,0.10001 -0.213318,0.52108 -0.374294,0.7388 -0.168989,0.22857 -0.671477,0.55814 -0.95573,0.62683 -0.371643,0.0898 -0.799183,0.11584 -1.152685,0.0702 z m 4.33505,-0.005 c -0.50127,-0.0644 -0.969502,-0.29934 -1.265028,-0.63471 -0.308559,-0.35018 -0.388579,-0.50597 -0.497777,-0.96915 -0.165717,-0.70291 -0.09092,-1.36243 0.221795,-1.95571 0.213909,-0.40582 0.480724,-0.65437 0.927328,-0.86384 0.298301,-0.13992 0.394317,-0.15375 1.066712,-0.15375 0.672393,0 0.76841,0.0138 1.066713,0.15375 0.432624,0.20292 0.705848,0.45047 0.908845,0.82345 0.559792,1.02852 0.391953,2.39751 -0.379372,3.09435 -0.126251,0.11406 -0.304283,0.246 -0.395637,0.2932 -0.38447,0.19865 -1.072665,0.28706 -1.653579,0.21241 z m 0.896381,-1.06 c 0.43281,-0.20952 0.665303,-0.8643 0.553462,-1.55876 -0.06799,-0.42215 -0.167275,-0.62559 -0.40152,-0.8227 -0.526144,-0.44272 -1.345929,-0.14486 -1.549458,0.56299 -0.154796,0.53835 -0.0572,1.27823 0.207769,1.57511 0.330732,0.37057 0.749859,0.45631 1.189747,0.24336 z m 5.335023,1.06035 c -0.491469,-0.0799 -0.885429,-0.41169 -1.041242,-0.87705 -0.0441,-0.13171 -0.06727,-0.78856 -0.06727,-1.90637 l 0,-1.70543 0.620678,0 0.620676,0 0,1.4797 c 0,1.63905 0.0342,1.83734 0.337034,1.95436 0.09098,0.0352 0.296773,0.0517 0.457315,0.0368 0.240851,-0.0224 0.32537,-0.0637 0.483353,-0.23606 0.105303,-0.1149 0.219856,-0.31119 0.254561,-0.43617 0.03578,-0.12884 0.06325,-0.78407 0.06344,-1.51295 l 2.34e-4,-1.28568 0.620679,0 0.620682,0 0,2.18715 0,2.18715 -0.591127,0 -0.591119,0 -0.0041,-0.16257 c -0.0024,-0.0894 -0.02301,-0.2103 -0.04604,-0.26865 -0.03703,-0.0938 -0.05683,-0.0859 -0.170914,0.0684 -0.263983,0.35705 -0.974636,0.57354 -1.56687,0.47733 z m -42.382596,-0.0643 c -0.334118,-0.0479 -0.53685,-0.1781 -0.709257,-0.45534 -0.127799,-0.20552 -0.134949,-0.28081 -0.153477,-1.61642 l -0.01944,-1.40086 -0.276125,-0.0179 -0.276128,-0.0179 0,-0.44334 0,-0.44334 0.280783,-0.018 0.280783,-0.018 0,-0.61744 0,-0.61743 0.620675,0 0.620679,0 0,0.61819 0,0.61818 0.458118,0.0172 0.45812,0.0172 0,0.44333 0,0.44335 -0.461606,0.0173 -0.461609,0.0173 0.01826,1.15547 c 0.01791,1.13268 0.02101,1.1577 0.157819,1.26836 0.0983,0.0795 0.232639,0.1129 0.454497,0.1129 l 0.314947,0 0.03548,0.28078 c 0.01951,0.15442 0.04708,0.35393 0.06126,0.44334 0.01608,0.10139 -0.0014,0.1645 -0.04664,0.1677 -0.03983,0.003 -0.301196,0.0228 -0.580822,0.0444 -0.279625,0.0216 -0.628972,0.0219 -0.776327,7e-4 z m -19.137518,-0.10055 c -0.25748,-0.13809 -0.407752,-0.33809 -0.476391,-0.63403 -0.02958,-0.12753 -0.05441,-0.79567 -0.05519,-1.48477 l -0.0014,-1.2529 -0.280783,-0.018 -0.280782,-0.018 -0.01727,-0.45812 -0.01727,-0.45812 0.298047,0 0.298048,0 0,-0.62068 0,-0.62068 0.620676,0 0.620678,0 0,0.62068 0,0.62068 0.475383,0 0.475384,0 -0.01727,0.45812 -0.01727,0.45812 -0.461608,0.0173 -0.461607,0.0173 0.01827,1.15547 c 0.01791,1.13267 0.02102,1.1577 0.157816,1.26836 0.0983,0.0795 0.232639,0.11288 0.454498,0.11288 l 0.314945,0 0.03548,0.28079 c 0.01952,0.15443 0.0464,0.3505 0.05973,0.43571 0.02256,0.14413 0.0053,0.15753 -0.247002,0.19212 -0.566129,0.0776 -1.280034,0.0431 -1.495128,-0.0722 z m -12.532748,-2.13681 0,-2.18715 0.591122,0 0.591121,0 0.0059,0.22166 c 0.0033,0.12193 0.02319,0.28218 0.04434,0.35613 0.03719,0.13006 0.04103,0.12858 0.117801,-0.0455 0.168247,-0.38149 0.68573,-0.62395 1.181711,-0.55368 l 0.256167,0.0363 -0.03761,0.362 c -0.0738,0.71044 -0.0712,0.7053 -0.336768,0.66284 -0.505789,-0.0809 -0.971748,0.22027 -1.109754,0.71722 -0.0341,0.12281 -0.06215,0.76195 -0.06233,1.42031 l -3.29e-4,1.19702 -0.620677,0 -0.620677,0 0,-2.18715 z m 7.093453,0 0,-2.18715 0.589085,0 0.589085,0 0.03844,0.28981 0.03844,0.28981 0.18483,-0.21051 c 0.379869,-0.43265 1.128931,-0.60764 1.774861,-0.41464 0.311076,0.0929 0.697497,0.47738 0.789555,0.78551 0.04736,0.1585 0.07276,0.79759 0.07637,1.92114 l 0.0054,1.68361 -0.624349,0.0168 -0.624348,0.0168 0,-1.48171 c 0,-1.6412 -0.03413,-1.8393 -0.337036,-1.95635 -0.28092,-0.10857 -0.708177,-0.0346 -0.908471,0.15732 -0.295314,0.28293 -0.35052,0.60053 -0.35052,2.01656 l 0,1.26018 -0.620677,0 -0.620677,0 0,-2.18715 z m 11.690834,1e-5 0.01619,-2.18716 0.582092,0 0.582093,0 0.04039,0.30453 0.0404,0.30453 0.142343,-0.20948 c 0.458657,-0.67497 1.761164,-0.69768 2.197509,-0.0383 l 0.151353,0.22871 0.233817,-0.24093 c 0.324995,-0.33489 0.638337,-0.46438 1.12749,-0.46597 0.624834,-0.002 0.98442,0.19391 1.245207,0.67849 0.120885,0.22462 0.128183,0.32589 0.145927,2.02459 l 0.01869,1.78815 -0.624578,0 -0.624576,0 -4.69e-4,-1.40392 c -4.7e-4,-1.8571 -0.06839,-2.0837 -0.624893,-2.0837 -0.218161,0 -0.302935,0.0324 -0.43777,0.16722 -0.266042,0.26604 -0.309246,0.51709 -0.339994,1.97559 l -0.02833,1.34481 -0.614353,0 -0.614354,0 0,-1.52818 c 0,-1.49329 -0.0031,-1.53276 -0.134964,-1.72903 -0.115632,-0.17208 -0.173254,-0.20337 -0.402292,-0.21841 -0.201842,-0.0132 -0.306636,0.0134 -0.427783,0.10867 -0.343112,0.26989 -0.36324,0.37115 -0.38438,1.93348 l -0.01939,1.43347 -0.630837,1e-5 -0.630839,3e-5 0.01619,-2.18717 z m 19.165689,-1e-5 0,-2.18715 0.591121,0 0.591121,0 0.0074,0.20689 c 0.0041,0.11379 0.01403,0.23349 0.02216,0.266 0.0081,0.0325 0.01854,0.10566 0.02315,0.16256 0.0055,0.0678 0.05375,0.024 0.140391,-0.12745 0.236874,-0.41423 0.637542,-0.59684 1.154181,-0.52603 l 0.25515,0.035 -0.03524,0.33142 c -0.08093,0.76125 -0.06789,0.7342 -0.333483,0.69173 -0.507955,-0.0812 -0.973665,0.21902 -1.111917,0.71687 -0.03411,0.12281 -0.06216,0.76195 -0.06234,1.42031 l -2.35e-4,1.19702 -0.620676,0 -0.620678,0 0,-2.18715 z m 15.723821,-0.91624 0,-3.10339 0.650234,0 0.650232,0 0,3.10339 0,3.10338 -0.650232,0 -0.650234,0 0,-3.10338 z m 6.265884,2.4236 0,-0.6798 0.709346,0 0.709344,0 0,0.6798 0,0.67978 -0.709344,0 -0.709346,0 0,-0.67978 z m 10.994851,0 0,-0.6798 0.709346,0 0.709346,0 0,0.6798 0,0.67978 -0.709346,0 -0.709346,0 0,-0.67978 z m 6.679671,-2.4236 0,-3.10339 0.619722,0 0.619732,0 0.01576,1.6108 0.01576,1.61081 0.532014,-0.50886 c 0.292597,-0.27988 0.628621,-0.59243 0.746703,-0.69456 l 0.21469,-0.18571 0.760653,0.003 0.76066,0.003 -0.78939,0.75252 -0.789375,0.75253 0.290975,0.50106 c 0.16004,0.27558 0.52523,0.90007 0.81153,1.38774 0.2863,0.48768 0.53211,0.90663 0.54622,0.93102 0.0141,0.0244 -0.30226,0.0444 -0.70307,0.0444 l -0.72874,0 -0.200722,-0.36945 c -0.110414,-0.2032 -0.372709,-0.67086 -0.58289,-1.03924 l -0.382155,-0.66978 -0.258334,0.25353 -0.258324,0.25353 0,0.7857 0,0.78571 -0.620679,0 -0.620679,0 0,-3.10339 z m -67.801593,-6.29552 0,-0.23644 5.396556,0 5.396556,0 0.06878,-0.32793 c 0.04567,-0.21777 0.04977,-0.37792 0.0122,-0.47675 -0.09435,-0.24816 -0.06502,-0.27696 0.121892,-0.11969 0.09816,0.0826 0.336348,0.23433 0.529309,0.33718 0.192961,0.10284 0.456034,0.27704 0.584604,0.38709 l 0.233768,0.2001 2.458533,0 c 2.31654,0 2.458534,-0.006 2.458534,-0.10508 0,-0.15162 0.167229,-0.36788 0.284134,-0.36747 0.107979,4.1e-4 0.292991,0.0876 0.570964,0.26931 0.169272,0.11063 0.167047,0.10338 -0.06471,-0.21055 -0.190806,-0.25845 -0.278426,-0.32893 -0.42733,-0.3437 -0.148245,-0.0147 -0.204382,-0.0595 -0.269153,-0.21445 -0.09861,-0.23602 -0.190232,-0.30206 -0.296578,-0.21381 -0.06221,0.0516 -0.08814,0.0305 -0.120451,-0.0983 -0.03936,-0.15685 -0.04483,-0.15909 -0.124004,-0.0508 -0.04555,0.0623 -0.113346,0.26841 -0.150653,0.45805 -0.03731,0.18962 -0.07855,0.34477 -0.09166,0.34477 -0.06433,0 -0.663893,-0.32628 -0.833555,-0.45361 -0.106137,-0.0797 -0.258277,-0.2737 -0.33809,-0.4312 -0.07981,-0.1575 -0.177312,-0.29711 -0.216666,-0.31022 -0.111508,-0.0372 -0.01169,-0.21878 0.155095,-0.28219 0.167221,-0.0636 0.173796,-0.0808 0.0904,-0.23663 -0.08177,-0.15278 -0.0128,-0.29596 0.142597,-0.29596 0.179242,0 0.330821,0.12277 0.442601,0.35846 0.09747,0.20551 0.379156,0.41093 0.456897,0.33319 0.02426,-0.0242 -9.1e-4,-0.16984 -0.05606,-0.32354 -0.127909,-0.35688 -0.12751,-0.36041 0.04821,-0.42722 0.193676,-0.0737 0.187201,-0.11896 -0.05911,-0.41378 -0.168151,-0.20127 -0.206892,-0.29675 -0.206892,-0.5099 0,-0.42585 0.299787,-0.42187 0.379876,0.005 0.04338,0.23126 0.328643,0.50767 0.720262,0.69794 0.20388,0.0991 0.259999,0.15833 0.262054,0.27682 0.0024,0.13892 0.01183,0.13334 0.119635,-0.0709 0.123697,-0.23431 0.291536,-0.29778 0.291536,-0.11024 0,0.0613 0.0665,0.155 0.147779,0.20825 0.190364,0.12473 0.18623,0.0979 -0.03554,-0.2307 -0.203812,-0.30199 -0.286036,-0.6897 -0.174717,-0.82383 0.05692,-0.0686 0.04496,-0.12118 -0.05975,-0.26281 -0.168815,-0.22834 -0.127745,-0.52761 0.120797,-0.88022 0.09832,-0.13948 0.17876,-0.29273 0.17876,-0.34055 0,-0.10943 0.07948,-0.11001 0.288162,-0.002 0.19605,0.10138 0.598521,0.53384 0.598521,0.64311 0,0.0425 0.07757,0.13474 0.172381,0.20483 0.106186,0.0785 0.222215,0.2587 0.302159,0.46923 0.116802,0.30762 0.1265,0.41567 0.09698,1.0807 -0.01803,0.40639 -0.07133,0.86437 -0.118445,1.01771 -0.0806,0.26238 -0.07906,0.28093 0.02606,0.31429 0.113194,0.036 0.138594,0.10511 0.194612,0.53003 0.02268,0.17193 0.08601,0.28483 0.232147,0.41378 0.110533,0.0975 0.217097,0.22389 0.236805,0.28079 0.03244,0.0936 0.142465,0.10344 1.16082,0.10344 1.099465,0 1.124984,-0.003 1.124984,-0.12277 0,-0.17055 0.313247,-0.46835 0.492648,-0.46835 0.428563,0 1.339828,-0.56767 1.339828,-0.83465 0,-0.0937 -0.03483,-0.0756 -0.186517,0.0972 -0.227767,0.25942 -0.595239,0.45524 -0.808101,0.43064 -0.122896,-0.0142 -0.162229,-0.0545 -0.176771,-0.18083 -0.01028,-0.0894 -0.02757,-0.16256 -0.0384,-0.16256 -0.01085,0 -0.158427,0.0934 -0.327995,0.20747 -0.351679,0.23666 -0.527293,0.29405 -0.738039,0.24115 -0.143247,-0.036 -0.14778,-0.0526 -0.14778,-0.54355 l 0,-0.50646 -0.177069,-0.0669 c -0.211196,-0.0797 -0.271926,-0.30061 -0.211288,-0.76848 0.09063,-0.6993 0.27267,-0.9932 0.5305,-0.85648 0.06813,0.0361 0.15862,0.11466 0.201105,0.17453 0.04249,0.0598 0.12758,0.10884 0.189105,0.10884 0.06152,0 0.182876,0.0931 0.26967,0.20689 0.152184,0.19953 0.336753,0.28164 0.306331,0.13629 -0.01671,-0.0799 0.225969,-0.14758 0.576342,-0.16074 0.221231,-0.008 0.229063,-0.0145 0.121704,-0.0956 -0.06597,-0.0499 -0.242556,-0.0868 -0.415409,-0.0868 -0.393103,0 -0.752506,-0.23358 -0.829033,-0.5388 -0.02131,-0.085 -0.156476,-0.27011 -0.300358,-0.41132 -0.301189,-0.29559 -0.319659,-0.4148 -0.111689,-0.72085 0.139291,-0.20498 0.170705,-0.22061 0.443341,-0.22061 0.161387,0 0.292545,-0.0199 0.291463,-0.0444 -0.0047,-0.10684 -0.235085,-0.31034 -0.351289,-0.31034 -0.388691,0 -0.533426,-0.30244 -0.533426,-1.11465 l 0,-0.58644 0.19617,-0.0368 c 0.256923,-0.0482 0.543435,0.012 0.657633,0.1382 0.05027,0.0556 0.10856,0.23204 0.12955,0.39222 0.0405,0.30908 0.167265,0.61636 0.254266,0.61636 0.02879,0 0.121199,-0.0819 0.205364,-0.18186 0.184944,-0.2198 0.168111,-0.33201 -0.133783,-0.89191 -0.181199,-0.33604 -0.203815,-0.41861 -0.153827,-0.56156 0.11921,-0.34091 0.57467,-0.19209 0.655954,0.21435 0.04222,0.21108 0.268989,0.43394 0.413284,0.40614 0.05892,-0.0114 0.165688,-0.1268 0.237271,-0.25657 0.261117,-0.47337 0.330602,-0.48559 0.698509,-0.12289 0.253153,0.24956 0.6046,0.42501 0.752574,0.37569 0.03888,-0.0129 -0.0025,-0.0739 -0.09378,-0.13776 -0.624232,-0.43752 -0.893138,-0.66916 -0.893138,-0.76935 0,-0.17124 0.199781,-0.17214 0.377672,-0.002 0.101072,0.0968 0.275527,0.17449 0.478368,0.21296 0.378563,0.0718 0.463241,0.12327 0.880296,0.53507 0.252,0.24883 0.309079,0.28399 0.276214,0.17017 -0.03775,-0.13073 -0.135237,-0.23562 -0.644505,-0.69339 -0.141943,-0.1276 -0.1643,-0.18588 -0.140204,-0.36552 0.02814,-0.20984 0.02113,-0.2184 -0.387344,-0.4715 -0.583073,-0.36131 -1.342951,-1.1057 -1.342951,-1.31558 0,-0.30422 0.401917,-0.32576 0.537225,-0.0288 0.06047,0.13271 0.07999,0.13681 0.426046,0.0894 0.452345,-0.0618 0.515087,-0.11728 0.386478,-0.34137 -0.05374,-0.0936 -0.08189,-0.18609 -0.06254,-0.20544 0.01935,-0.0193 0.06559,-0.12365 0.102777,-0.23181 0.06406,-0.18634 0.05912,-0.19985 -0.09427,-0.25775 -0.09725,-0.0367 -0.250531,-0.19965 -0.383938,-0.40815 -0.122135,-0.19088 -0.283772,-0.4393 -0.359191,-0.55206 -0.192789,-0.28823 -0.07639,-0.33769 0.428112,-0.18186 0.349038,0.10781 0.410793,0.11182 0.576991,0.0375 0.102366,-0.0458 0.25262,-0.0968 0.333899,-0.11331 0.08128,-0.0166 0.258905,-0.0714 0.394726,-0.12185 0.240682,-0.0894 0.256764,-0.0873 0.634158,0.0838 0.44946,0.2038 0.44892,0.20369 0.44892,0.0856 0,-0.0495 -0.07315,-0.11993 -0.162558,-0.1566 -1.039252,-0.42617 -1.103643,-0.49653 -1.106429,-1.20899 -0.0016,-0.42771 0.01479,-0.50801 0.127249,-0.62075 0.118521,-0.11881 0.140457,-0.1222 0.266005,-0.0413 0.07526,0.0485 0.203332,0.10443 0.284611,0.12418 0.130793,0.0318 0.122299,0.0142 -0.07389,-0.15284 -0.375045,-0.31938 -0.246834,-0.57438 0.251985,-0.50117 0.269524,0.0395 0.216081,-0.0913 -0.103811,-0.25417 -0.497393,-0.25327 -0.535101,-0.61818 -0.113387,-1.09728 0.211942,-0.24077 0.246453,-0.32098 0.280778,-0.65261 0.02153,-0.20796 0.05293,-0.39189 0.06978,-0.40875 0.01686,-0.0169 0.239631,0.0393 0.495052,0.12489 0.468812,0.15701 0.699595,0.31164 0.762929,0.51118 0.05125,0.1615 0.14628,0.1322 0.222019,-0.0685 0.07747,-0.20522 0.136202,-0.22482 0.18769,-0.0626 0.02003,0.0631 0.134733,0.16286 0.254902,0.22168 0.403313,0.1974 0.382477,0.42546 -0.115081,1.25963 -0.185458,0.31091 -0.187556,0.32101 -0.0481,0.23114 0.08021,-0.0516 0.272838,-0.27701 0.428072,-0.50074 0.155233,-0.22373 0.350992,-0.47854 0.435021,-0.56624 0.08403,-0.0877 0.135342,-0.18767 0.114029,-0.22215 -0.08235,-0.13326 0.08302,-0.30159 0.296273,-0.30159 0.616107,0 1.144353,0.6579 0.787526,0.98082 -0.147169,0.13319 -0.28951,0.39304 -0.28951,0.52852 0,0.19557 0.153349,0.0401 0.354675,-0.35966 0.246314,-0.48906 0.403762,-0.58956 0.916237,-0.58488 0.218948,0.002 0.377295,-0.0254 0.413784,-0.0715 0.03252,-0.0412 0.176753,-0.10063 0.320532,-0.13224 0.143781,-0.0316 0.283457,-0.0969 0.310392,-0.14499 0.04032,-0.072 0.08121,-0.0753 0.231423,-0.0188 0.173203,0.0652 0.19147,0.0575 0.360353,-0.15294 0.09785,-0.12192 0.199321,-0.22166 0.225498,-0.22166 0.02618,0 0.07663,0.0833 0.112122,0.18509 l 0.06453,0.1851 0.606269,-0.0274 c 0.698825,-0.0316 1.030579,-0.14942 1.473998,-0.52331 0.324065,-0.27325 0.56767,-0.30251 0.939487,-0.11282 0.19621,0.10011 0.327157,0.11756 0.776098,0.10345 0.603328,-0.0189 0.677198,-0.0721 0.435767,-0.31354 -0.159769,-0.15977 -0.188263,-0.29432 -0.09367,-0.44234 0.04885,-0.0764 0.09561,-0.0677 0.338989,0.0635 0.261396,0.14091 0.343675,0.15295 1.109894,0.16244 0.455164,0.005 0.902295,0.026 0.993624,0.0454 0.150884,0.032 0.162488,0.0522 0.127017,0.22179 -0.02149,0.10267 -0.19714,0.45255 -0.390371,0.77753 -0.309577,0.52065 -0.34926,0.6225 -0.333909,0.85699 0.01723,0.26329 0.02024,0.26674 0.283429,0.32536 0.146301,0.0326 0.295964,0.0787 0.332583,0.10255 0.105732,0.0688 -0.506823,1.26385 -0.834762,1.6286 -0.281715,0.31334 -0.888361,0.71221 -1.271184,0.83581 -0.162232,0.0524 -0.289838,0.18321 -0.591121,0.60606 -0.51238,0.71911 -1.145832,1.35176 -1.849426,1.84706 -0.522894,0.3681 -1.224404,1.02941 -1.224404,1.15423 0,0.0272 -0.06057,0.0646 -0.134588,0.0832 -0.07403,0.0186 -0.243143,0.1267 -0.375822,0.24026 -0.268052,0.22945 -0.415214,0.60914 -0.350423,0.90414 0.08446,0.38453 -0.366409,0.65103 -0.990955,0.58574 l -0.356324,-0.0373 0.137398,0.14626 c 0.199019,0.21184 0.482395,0.28613 0.938203,0.24593 0.216485,-0.0191 0.473411,-0.0419 0.570945,-0.0507 0.143039,-0.0129 0.180868,0.009 0.1956,0.11224 0.01787,0.1254 0.0241,0.12623 0.283095,0.038 0.171492,-0.0585 0.330008,-0.17134 0.449749,-0.32034 0.101706,-0.12655 0.210392,-0.2301 0.241524,-0.2301 0.229094,0 -0.500709,1.17708 -1.153311,1.86014 l -0.397127,0.41567 -0.0019,-0.21745 c -0.0021,-0.23663 -0.124686,-0.40323 -0.296834,-0.40323 -0.06005,0 -0.24674,0.11742 -0.414872,0.26094 -0.240578,0.20536 -0.395857,0.28296 -0.728948,0.36428 -0.340476,0.0831 -0.46144,0.1448 -0.6185,0.3154 -0.107385,0.11664 -0.297789,0.31847 -0.423118,0.44852 -0.274604,0.28493 -0.389301,0.49378 -0.313057,0.57003 0.03376,0.0338 0.143899,-0.0417 0.286258,-0.19619 0.798957,-0.86697 0.949257,-0.9555 1.650069,-0.97209 0.260094,-0.006 0.559867,-0.0302 0.666163,-0.0533 0.192094,-0.0418 0.192881,-0.0411 0.129876,0.12468 -0.03487,0.0917 -0.151909,0.28993 -0.260097,0.44052 -0.108191,0.1506 -0.215072,0.33165 -0.237511,0.40236 -0.0495,0.15597 -0.686087,0.60017 -0.860104,0.60017 -0.117181,0 -0.119188,0.008 -0.0328,0.13138 0.116004,0.16561 0.11718,0.30615 0.0034,0.40063 -0.141171,0.11716 -0.104019,0.17734 0.109481,0.17734 0.252323,0 0.511897,-0.17771 0.883279,-0.60471 0.251083,-0.28869 0.283272,-0.35236 0.217941,-0.43108 -0.04568,-0.055 -0.05497,-0.11344 -0.02301,-0.14456 0.02951,-0.0287 0.39175,-0.0608 0.804982,-0.0714 l 0.751332,-0.0192 0.253576,-0.24733 c 0.340724,-0.33234 0.744941,-0.52364 1.363,-0.64508 0.400179,-0.0786 0.533656,-0.1304 0.600948,-0.2331 0.04758,-0.0726 0.185169,-0.19301 0.305758,-0.26754 0.364804,-0.22545 0.787115,-0.19198 1.753173,0.13895 0.963736,0.33015 1.282141,0.35457 1.72085,0.13199 0.422235,-0.21421 0.638824,-0.23778 1.090473,-0.11862 0.217029,0.0573 0.580802,0.12448 0.808383,0.14939 0.227582,0.0249 0.69198,0.0892 1.031997,0.14286 0.631546,0.0997 0.934947,0.0853 1.290964,-0.0612 0.156426,-0.0644 0.286528,-0.0672 0.65872,-0.0146 0.42892,0.0607 0.48345,0.0561 0.725197,-0.0609 0.143772,-0.0696 0.34511,-0.12655 0.447415,-0.12655 0.477721,0 1.242761,0.47776 1.542311,0.96315 0.06434,0.10425 0.13606,0.35873 0.159385,0.56551 0.02333,0.20679 0.103865,0.49735 0.178976,0.64571 0.0751,0.14836 0.119316,0.29764 0.09824,0.33173 -0.02108,0.0341 -0.03112,0.16159 -0.02232,0.28332 0.01228,0.17007 -0.02428,0.27315 -0.157835,0.44499 -0.470462,0.60533 -1.253626,1.6907 -1.253626,1.73738 0,0.0306 2.852307,0.0527 6.797894,0.0527 l 6.797893,0 0,0.23645 0,0.23645 -30.797412,0 -30.79741,0 0,-0.23645 z m 20.100198,-0.8828 c -0.08107,-0.15148 -0.07013,-0.80064 0.0185,-1.09745 0.04347,-0.14559 0.122005,-0.25917 0.204361,-0.29557 0.07977,-0.0353 0.16058,-0.14858 0.200213,-0.28077 0.03655,-0.12193 0.08885,-0.22168 0.116213,-0.22168 0.06815,0 0.06569,0.011 -0.06717,0.30388 -0.131654,0.29014 -0.150526,0.68893 -0.05664,1.1968 0.04714,0.25503 0.04534,0.3613 -0.0072,0.42465 -0.100741,0.12139 -0.336524,0.10414 -0.408236,-0.0299 z m -8.543779,-0.0591 c -0.366523,-0.17326 -0.5886,-0.38015 -0.541052,-0.50406 0.03178,-0.0828 0.08065,-0.0973 0.228533,-0.0677 0.27636,0.0553 0.443771,0.18555 0.578965,0.45055 0.138623,0.27172 0.09446,0.29182 -0.266446,0.12122 z m -0.120669,-0.76382 c -0.45708,-0.21027 -0.688751,-0.64292 -0.455676,-0.85097 0.163758,-0.14616 0.317078,-0.13791 0.652253,0.0351 0.534704,0.27597 0.658234,0.48288 0.441322,0.73923 -0.150022,0.17729 -0.363436,0.20295 -0.637899,0.0767 z m -0.123253,-1.63496 c -0.368913,-0.42903 -0.563425,-0.53653 -0.796262,-0.44009 -0.14199,0.0588 -0.195987,0.0544 -0.319045,-0.0262 -0.19967,-0.13082 -0.190367,-0.33123 0.03354,-0.72258 0.177698,-0.31059 0.187542,-0.31754 0.44975,-0.31754 0.255659,0 0.266376,0.006 0.231378,0.1462 -0.05178,0.20631 0.103536,0.13706 0.259847,-0.11587 0.06608,-0.1069 0.164199,-0.23062 0.218057,-0.27491 0.08837,-0.0727 0.09436,-0.0626 0.06145,0.10371 -0.0278,0.14045 -0.0063,0.21664 0.09051,0.32054 l 0.126982,0.1363 0.121192,-0.1675 c 0.30137,-0.41655 0.360214,-0.46361 0.527201,-0.42171 0.146336,0.0367 0.156921,0.058 0.121776,0.2454 l -0.03849,0.20518 0.387318,0 c 0.416132,0 0.466119,0.0273 0.414109,0.22619 -0.04053,0.15496 -0.223694,0.16837 -0.53324,0.0391 -0.117738,-0.0492 -0.223405,-0.0802 -0.234814,-0.0687 -0.01141,0.0114 0.0081,0.10351 0.04336,0.20465 0.04579,0.13134 0.121887,0.20297 0.266271,0.25062 0.231011,0.0762 0.255051,0.182 0.08095,0.3561 -0.105988,0.10599 -0.182112,0.11898 -0.605899,0.10345 l -0.484684,-0.0178 -0.01873,0.23645 c -0.01031,0.13004 -0.04026,0.25842 -0.06659,0.28529 -0.02632,0.0269 -0.177494,-0.10191 -0.335944,-0.28618 z m 2.215895,-2.79217 c -0.408275,-0.38395 -0.760176,-0.80535 -0.760176,-0.91032 0,-0.0903 0.105813,-0.053 0.290287,0.10217 l 0.181133,0.15241 0.127268,-0.21571 c 0.07743,-0.13123 0.251352,-0.28573 0.44408,-0.3945 0.315163,-0.17786 0.370503,-0.24558 0.257699,-0.31529 -0.03252,-0.0201 -0.05911,-0.0749 -0.05911,-0.12172 0,-0.066 0.09292,-0.0851 0.413784,-0.0851 0.481117,0 0.534729,-0.0791 0.217613,-0.32095 -0.237294,-0.18099 -0.593971,-0.31241 -0.990789,-0.36505 -0.325231,-0.0432 -0.566,-0.19845 -0.649936,-0.41921 -0.07692,-0.20229 0.02322,-0.35743 0.302956,-0.46935 0.256074,-0.10247 0.298896,-0.19277 0.1143,-0.24104 -0.06555,-0.0171 -0.112295,-0.0612 -0.103888,-0.0979 0.0084,-0.0367 -0.05615,-0.16038 -0.143476,-0.27482 -0.194374,-0.25474 -0.291996,-0.65044 -0.221293,-0.89696 0.0808,-0.28173 0.223579,-0.46135 0.367523,-0.46234 0.07241,-4e-4 0.17012,-0.0252 0.217152,-0.055 0.07076,-0.0447 0.06157,-0.0735 -0.05324,-0.16646 -0.110646,-0.0896 -0.130364,-0.14579 -0.09733,-0.27741 0.04128,-0.16447 0.04273,-0.16491 0.407332,-0.12366 0.454916,0.0515 0.528355,0.10715 0.480165,0.36402 -0.0326,0.17376 -0.01796,0.20578 0.123556,0.27026 0.134128,0.0611 0.171625,0.0584 0.227951,-0.0169 0.118643,-0.15838 0.263931,-0.16973 0.638943,-0.0499 0.479087,0.15305 0.554136,0.0825 0.259386,-0.24372 -0.44194,-0.48917 -0.564796,-1.00631 -0.301593,-1.26951 0.0798,-0.0798 0.186205,-0.14509 0.23645,-0.14509 0.05025,0 0.09135,-0.0255 0.09135,-0.0566 0,-0.0835 0.470443,-0.33935 0.709346,-0.38578 0.569851,-0.11075 0.648017,-0.14909 0.762819,-0.37412 0.135982,-0.26654 0.556093,-0.66801 1.048381,-1.00185 0.199624,-0.13537 0.458658,-0.35794 0.575629,-0.4946 0.209233,-0.24444 0.214637,-0.2467 0.333524,-0.13911 0.202593,0.18335 0.351413,0.47139 0.419999,0.81288 0.06052,0.30136 0.05536,0.33858 -0.07061,0.50897 -0.135579,0.18337 -0.135657,0.18464 -0.03169,0.51446 l 0.104223,0.33064 -0.382064,0.39574 c -0.414052,0.42889 -0.750395,0.9139 -0.750395,1.08207 0,0.12415 0.223999,0.19632 0.424297,0.13672 0.07549,-0.0225 0.292698,-0.15976 0.482667,-0.30511 0.368861,-0.28221 0.511727,-0.29482 0.511727,-0.0452 0,0.22398 -0.172418,0.48284 -0.390566,0.58636 -0.234939,0.11149 -0.302748,0.11137 -0.843511,-0.002 -0.239834,-0.05 -0.451436,-0.0756 -0.470227,-0.0568 -0.01878,0.0188 9.11e-4,0.11961 0.04382,0.22403 0.150529,0.3665 0.147423,0.49851 -0.01526,0.64929 -0.08326,0.0772 -0.342074,0.21707 -0.575144,0.3109 -0.447385,0.1801 -0.46067,0.2618 -0.02472,0.15202 0.562959,-0.14175 0.679594,-0.0553 0.679594,0.50408 0,0.4588 -0.04618,0.49466 -0.637535,0.49508 -0.501902,4e-4 -0.510623,0.003 -0.339163,0.0921 0.214797,0.112 0.265277,0.18602 0.266448,0.39065 9.11e-4,0.17315 -0.257089,0.52177 -0.386275,0.52177 -0.04461,0 -0.131832,0.0545 -0.193823,0.12098 l -0.112712,0.12098 -0.178908,-0.15053 c -0.215691,-0.1815 -0.248878,-0.18664 -0.208521,-0.0323 0.04656,0.17803 -0.08652,0.14462 -0.308606,-0.0774 -0.224128,-0.22413 -0.344158,-0.5935 -0.314411,-0.96754 0.02376,-0.29871 -0.02483,-0.32797 -0.128597,-0.0774 -0.108089,0.26095 -0.04462,0.69563 0.167876,1.14972 0.102603,0.21926 0.171799,0.42253 0.153771,0.45169 -0.01803,0.0291 -0.217414,0.053 -0.443076,0.053 -0.457484,0 -0.48917,0.037 -0.262516,0.30634 0.08128,0.0966 0.14778,0.24052 0.14778,0.31983 0,0.14404 -0.04057,0.17157 -0.547402,0.37151 -0.106367,0.042 -0.267918,0.22934 -0.464037,0.53825 -0.165471,0.26063 -0.310999,0.47388 -0.32339,0.47388 -0.0124,0 -0.213462,-0.17955 -0.446817,-0.39901 z m -0.228167,-1.62996 c 0,-0.11657 0.386933,-0.4182 0.470344,-0.36665 0.08705,0.0538 0.0766,0.24072 -0.01787,0.31911 -0.04374,0.0363 -0.163442,0.0828 -0.266005,0.1033 -0.146049,0.0292 -0.186481,0.0171 -0.186481,-0.0557 z m 1.511965,-4.24755 c -0.230099,-0.26882 -0.286244,-0.44985 -0.108052,-0.34841 0.243543,0.13865 0.563991,0.46073 0.523531,0.52619 -0.0776,0.12556 -0.201042,0.0728 -0.415479,-0.17778 z"
       id="path3066"
       inkscape:connector-curvature="0" />
  </g>
</svg>
