<?xml version="1.0" encoding="UTF-8" standalone="no"?>
<svg
   xmlns:svg="http://www.w3.org/2000/svg"
   xmlns="http://www.w3.org/2000/svg"
   xmlns:sodipodi="http://sodipodi.sourceforge.net/DTD/sodipodi-0.dtd"
   xmlns:inkscape="http://www.inkscape.org/namespaces/inkscape"
   inkscape:export-ydpi="204.81"
   inkscape:export-xdpi="204.81"
   inkscape:export-filename="/Users/martin/Downloads/Project Dakar/rallye club logo.png"
   inkscape:version="1.1-dev (48d18c81, 2020-07-08)"
   sodipodi:docname="rallye club logo.svg"
   viewBox="0 0 1096.3046 498.09058"
   height="498.09058"
   width="1096.3046"
   xml:space="preserve"
   id="svg2149"
   version="1.1"><defs
     id="defs2153"><rect
       id="rect2278"
       height="857.84521"
       width="3564.4949"
       y="2049.5957"
       x="1789.6427" /></defs><sodipodi:namedview
     inkscape:pagecheckerboard="true"
     fit-margin-bottom="100"
     fit-margin-right="100"
     fit-margin-left="100"
     lock-margins="true"
     fit-margin-top="100"
     inkscape:current-layer="g2157"
     inkscape:window-maximized="1"
     inkscape:window-y="25"
     inkscape:window-x="0"
     inkscape:cy="285.94841"
     inkscape:cx="431.8807"
     inkscape:zoom="1.014169"
     showgrid="false"
     id="namedview2151"
     inkscape:window-height="790"
     inkscape:window-width="1440"
     inkscape:pageshadow="2"
     inkscape:pageopacity="1"
     guidetolerance="10"
     gridtolerance="10"
     objecttolerance="10"
     borderopacity="1"
     bordercolor="#666666"
     pagecolor="#000070" /><g
     transform="matrix(1.3333333,0,0,-1.3333333,100.00011,392.9956)"
     inkscape:label="ink_ext_XXXXXX"
     inkscape:groupmode="layer"
     id="g2155"><g
       transform="scale(0.1)"
       id="g2157"><path
         inkscape:export-ydpi="204.81"
         inkscape:export-xdpi="204.81"
         id="path2191"
         style="fill:#f466ba;fill-opacity:1;fill-rule:nonzero;stroke:none"
         d="m 987.434,134.371 c 31.576,-37.3202 64.636,-68.8124 102.796,-94.9101 9.66,-6.6015 22.89,-12.3398 17.98,-27.7421 -4.83,-15.19927 -18.73,-11.589894 -29.7,-10.70708 -30.67,2.47656 -56.82,17.82808 -83.299,31.66018 -50.531,26.4062 -87.738,65.9687 -113.172,116.7971 -7.148,14.293 -19,24.359 -30.715,34.441 -61.219,52.711 -112.269,112.781 -143.562,188.629 -21.891,53.043 -52.938,102.289 -65.469,159.231 -7.32,33.269 -8.906,67.32 -10.383,100.96 -3.558,80.942 -22.824,158.7 -43.058,236.34 -20.114,77.149 -38.739,154.63 -55.051,232.66 -1.383,6.62 -2.77,13.35 -3.024,20.07 -2.281,60.36 -31.656,106.39 -76.8,143.46 -15.497,12.72 -26.543,28.01 -34.399,45.84 -23.008,52.24 -38.387,106.35 -38.133,164 0.063,12.39 3.059,24.13 13.141,32.46 12.894,10.65 30.676,5.21 31.676,-10.63 2.121,-33.54 18.894,-59.04 40.957,-82.3 47.629,-50.2 91.14,-104.32 141.699,-151.69 27.348,-25.62 36.363,-56.39 31.711,-91.96 -3.621,-27.66 3.859,-51.9 23.781,-69.95 22.211,-20.12 31.008,-45.69 38.246,-72.91 27.34,-102.722 73.875,-197.018 127.258,-288.222 32.969,-56.328 63.969,-113.976 105.609,-164.738 11.969,-14.59 25.071,-28.371 31.457,-46.648 2.946,-8.434 9.258,-17.84 0.336,-25.473 -8.207,-7.008 -18.308,-4.32 -27.328,-0.039 -5.207,2.488 -10.367,5.41 -14.871,8.98 -48.832,38.872 -94.027,81.071 -132.691,130.68 -37.832,48.551 -73.93,97.942 -103.664,151.86 -0.364,0.652 -1.367,0.949 -2.934,1.98 0.496,-12.09 6.02,-22.129 9.137,-32.738 15.414,-52.453 33.875,-103.883 53.937,-154.684 20.836,-52.75 53.473,-98.25 89.524,-141.637 45.265,-54.48 71.347,-117.8 82.804,-187.363 7.454,-45.226 27.43,-85.098 52.266,-125.937 5.676,43.847 39.184,66.898 62.984,96.089 39.32,48.231 86.83,89.219 121.43,141.93 65.06,99.07 128.9,198.82 188.69,301.18 16.63,28.461 24.38,59.73 31.49,91.359 7.36,32.821 19.57,63.66 38.31,91.68 5.03,7.519 10.24,16.891 21.63,12.82 10.86,-3.89 17.78,-10.308 18.43,-24.238 1.78,-38.66 5.46,-77.242 8.78,-115.82 1.85,-21.532 -6.43,-40.942 -12.15,-60.762 -13.13,-45.559 -31.05,-89.348 -49.54,-133.02 -17.88,-42.25 -46.99,-76.398 -73.9,-112.359 -35.11,-46.922 -71.05,-93.32 -113.03,-134.172 -46.08,-44.867 -91.67,-90.469 -142.34,-130.379 -20.22,-15.898 -42.35,-28.84 -65.56,-39.949 -5.95,-2.84 -11.982,-5.07 -21.286,-4.129" /><path
         inkscape:export-ydpi="204.81"
         inkscape:export-xdpi="204.81"
         id="path2193"
         style="fill:#f466ba;fill-opacity:1;fill-rule:nonzero;stroke:none"
         d="m 607.797,1881.4 c -39.231,-0.56 -78.289,2.62 -117.356,5.55 -9.839,0.73 -17.679,3.74 -20.703,14.6 -3.804,13.68 -12.504,23.15 -25.093,30.22 -21.286,11.96 -34.071,29.34 -37.465,55.02 -2.578,19.51 8.32,31.67 16.422,45.98 1.128,1.99 4.574,4.55 5.714,2.65 7.036,-11.7 16.289,-4.97 24.375,-3.06 62.688,14.84 126.942,19.56 190.293,30.03 11.875,1.97 24.153,2.23 35.356,7.33 4.566,2.08 12.012,2.56 11.691,8.71 -0.265,5.2 -7.285,5.27 -11.738,6.51 -12.578,3.49 -25.277,5.97 -38.516,5.53 -34.339,-1.15 -68.691,-2.07 -103.047,-2.8 -12.992,-0.27 -17.156,5.9 -12.613,18.29 3.231,8.8 9.375,15.55 16.121,22.02 31.922,30.63 71.977,45.02 113.539,54.75 149.164,34.92 287.758,6.88 416.003,-74.54 28.45,-18.06 54.64,-40.03 78.72,-63.95 12.52,-12.44 22.52,-26.61 23.58,-45.27 0.68,-12 -4.78,-17.9 -16.83,-18.36 -11.72,-0.45 -22.93,1.15 -34.28,4.39 -39.88,11.37 -78.78,26.37 -119.63,34.15 -27.176,5.19 -54.57,5.7 -82.043,0.21 -30.145,-6.02 -60.832,-2.94 -91.281,-3.93 -25.938,-0.84 -49.024,-10 -69.77,-25.13 -5.312,-3.88 -11.695,-8.94 -10,-16.26 1.66,-7.19 9.883,-6.94 15.734,-8.12 34.625,-6.98 69.282,-12.78 104.922,-12.84 29.875,-0.04 59.809,-2.54 89.09,-9.99 14.774,-3.77 28.055,-10.4 41.058,-17.95 7.41,-4.3 12.21,-10.52 15.47,-18.49 4.58,-11.19 12.84,-18.13 24.33,-23.2 36.13,-15.96 74.45,-27.97 105.01,-54.69 3.23,-2.83 6.59,-5.71 9.11,-9.14 7.74,-10.5 13.67,-22.34 7.28,-34.98 -5.78,-11.41 -18.71,-11.09 -29.5,-11.71 -24.89,-1.42 -48.56,7.65 -73.03,9.96 -50.14,4.74 -100.423,6.45 -150.7,2.49 -14.223,-1.11 -26.918,-5.75 -32.422,-21.66 -3.953,-11.43 -15.418,-13.99 -25.524,-16.85 -34.32,-9.74 -69.344,-7.23 -103.617,-1.66 -50.195,8.15 -99.84,8.27 -150.09,1.11 -22.969,-3.28 -45.746,-6.02 -68.07,-12.82 -17.617,-5.37 -36.164,-7.37 -54.598,-6.52 -41.836,1.92 -83,-2.08 -123.418,-12.78 -10.363,-2.74 -15.832,0.4 -20.976,9.24 -22.11,38.01 -13.867,69.8 26.035,88.44 39.57,18.49 81.781,29.33 125.18,34.42 68.695,8.07 137.753,12.19 206.675,17.73 3.7,0.3 8.688,-0.35 8.864,4.94 0.132,4.2 -4.508,4.51 -7.606,5.37 -26.437,7.31 -53.515,7.62 -80.656,7.06" /><path
         inkscape:export-ydpi="204.81"
         inkscape:export-xdpi="204.81"
         id="path2195"
         style="fill:#f466ba;fill-opacity:1;fill-rule:nonzero;stroke:none"
         d="M 0.0117188,769.57 C 0.582031,816.77 8,850.961 29.3438,881.719 c 16.0546,23.133 45.5156,31.82 69.2812,16.992 36.445,-22.75 54.809,-57.652 61.758,-98.883 8.844,-52.488 12.445,-105.648 17.203,-158.59 6.473,-72.097 16.508,-142.976 49.457,-208.66 11.137,-22.187 17.637,-46.066 22.227,-70.219 11.296,-59.48 34.585,-114.55 59.671,-169.07 6.672,-14.5 13.344,-29.027 19.297,-43.82 10.114,-25.129 -0.093,-39.66 -26.648,-39.098 -17.274,0.359 -30.817,6.41 -43.317,19.379 -46.66,48.422 -77.035,107.32 -110.546,164.488 -17.114,29.184 -25.903,59.883 -30.586,92.563 -3.274,22.808 -12.348,43.519 -22.9652,63.73 C 51.3125,532.18 26.3242,619.68 9.28906,709.84 4.87891,733.18 -0.289063,756.328 0.0117188,769.57" /><path
         inkscape:export-ydpi="204.81"
         inkscape:export-xdpi="204.81"
         id="path2197"
         style="fill:#f466ba;fill-opacity:1;fill-rule:nonzero;stroke:none"
         d="m 1206.27,1657.95 c -0.43,-67.37 -19.53,-130.06 -44.25,-192.13 -16.87,-42.36 -44.23,-77.96 -65.81,-117.18 -27.11,-49.26 -47.05,-101.4 -64.18,-154.99 -26.56,-83.15 -83.987,-134.5 -168.909,-154.91 -29.691,-7.14 -59.793,-11.21 -90.308,-12.16 -10.204,-0.32 -20.188,1.47 -29.833,4.65 -23.941,7.87 -31.093,27.6 -15.687,47.48 17.449,22.53 36.051,44.26 55.273,65.32 58.739,64.33 113.414,131.95 166.899,200.7 26.058,33.5 56.515,63.57 85.105,95.09 13.64,15.05 27.27,30.12 41.39,44.71 24.39,25.21 34.1,57.94 45.87,89.43 9.8,26.22 17.68,53.16 26.32,79.81 4.28,13.22 11.78,24.24 22.08,33.49 8.46,7.6 18.29,8.93 28.43,5.11 10.24,-3.86 7.09,-13.51 7.56,-21.35 0.27,-4.35 0.05,-8.72 0.05,-13.07" /><path
         inkscape:export-ydpi="204.81"
         inkscape:export-xdpi="204.81"
         id="path2199"
         style="fill:#f466ba;fill-opacity:1;fill-rule:nonzero;stroke:none"
         d="m 767.855,1464.1 c -62.14,2.71 -125.359,13.15 -182.511,43.54 -51.824,27.57 -107.344,43.21 -162.422,61.14 -30.035,9.78 -52.649,29.08 -60.219,61.23 -4.945,20.99 1.383,39.05 28.77,31.29 38.722,-10.97 79.347,-12.4 119.386,-12.41 65.403,-0.01 130.383,-9.41 195.598,-8.62 104.457,1.25 209.059,-5.14 313.393,4.89 13.92,1.34 27.96,1.12 41.93,2.74 14.83,1.71 35.62,-9.62 39.86,-20.35 5.37,-13.61 -1.61,-31.04 -16.6,-42.85 -14.96,-11.77 -31.39,-20.3 -49.52,-26.34 -42.137,-14.03 -83.922,-29.11 -125.993,-43.35 -17.211,-5.82 -32.179,-15.58 -47.152,-25.28 -28.18,-18.24 -59.254,-25.24 -94.52,-25.63" /><path
         inkscape:export-ydpi="204.81"
         inkscape:export-xdpi="204.81"
         id="path2201"
         style="fill:#f466ba;fill-opacity:1;fill-rule:nonzero;stroke:none"
         d="m 552.711,241.281 c -0.43,-4.652 1.25,-10.019 -4.012,-13.082 -5.633,-3.25 -10.344,0.121 -14.742,2.891 -9.527,6.012 -17.328,14.109 -23.852,23.109 -40.957,56.422 -79.132,114.582 -105.835,179.379 -9.926,24.094 -19.75,48.371 -27.286,73.274 -15.492,51.218 -44.554,95.25 -72.035,140.07 -35.441,57.816 -63.969,118.25 -72.57,186.25 -7.211,57.039 -7.387,113.859 13.371,168.818 6.863,18.17 17.98,32.84 34.91,43.09 9.063,5.47 18,5.96 27.692,2.92 37.308,-11.71 58.832,-41.31 61.109,-82.512 3.309,-59.879 4.059,-119.828 11.062,-179.566 8.715,-74.352 28.614,-145.731 50.844,-216.762 7.703,-24.59 18.332,-47.851 29.254,-71.012 17.738,-37.609 34.453,-75.527 44.551,-116.089 9.598,-38.539 24.769,-75.11 40.656,-111.399 4.086,-9.332 6.824,-19.058 6.883,-29.379" /><path
         inkscape:export-ydpi="204.81"
         inkscape:export-xdpi="204.81"
         id="path2203"
         style="fill:#f466ba;fill-opacity:1;fill-rule:nonzero;stroke:none"
         d="m 1238.59,1337.92 c -8.52,-30.11 4.41,-65.63 -8.58,-98.65 -14.17,-35.98 -30.56,-70.51 -55.02,-101.32 -16.35,-20.58 -21.95,-47.04 -26.93,-72.76 -8.35,-43.11 -12.78,-87.381 -25.43,-129.178 -16.56,-54.762 -27.98,-111.821 -56.92,-162.203 -17.01,-29.598 -42.23,-52.75 -66.124,-76.719 -9.191,-9.231 -18.039,-19.078 -28.395,-26.828 -20.687,-15.5 -36.632,-12.313 -45.957,10.148 -14.441,34.809 -22.199,70.891 -24.015,108.352 -0.426,8.808 -2.406,17.148 -4.879,25.519 -11.563,39.188 1.5,80.598 37.305,100.36 34.472,19.031 56.035,49.55 81.825,76.808 38.83,41.081 56.41,92.771 75.13,143.911 10.57,28.9 23.53,55.98 43.86,79.38 15.38,17.72 26.7,37.79 33.26,60.56 7.76,26.92 16.5,53.56 24.24,80.48 2.89,10.06 6.92,18.67 18.28,19.67 11,0.96 17.68,-6.41 22.82,-15.12 3.45,-5.85 6.84,-11.79 5.53,-22.41" /><path
         inkscape:export-ydpi="204.81"
         inkscape:export-xdpi="204.81"
         id="path2205"
         style="fill:#f466ba;fill-opacity:1;fill-rule:nonzero;stroke:none"
         d="m 1316.71,872.922 c 1.84,-37.32 -12.06,-76.07 -26.83,-114.524 -5.29,-13.777 -8.75,-27.539 -7.75,-42.378 1.05,-15.532 -1.11,-30.942 -2.66,-46.36 -3.34,-33.39 -23.97,-54.98 -51.47,-69.25 -33.77,-17.539 -51.22,-44.738 -60.12,-80.621 -7.19,-29 -18,-57.109 -27.08,-85.641 -5.19,-16.32 -15.22,-28.988 -28.93,-38.828 -12.59,-9.031 -24.05,-6.57 -31.4,6.918 -6.09,11.184 -6.75,23.25 -2.35,35.043 30.42,81.641 43.46,167.469 54.01,252.93 8.09,65.527 29.26,126.84 44.3,190.098 5.59,23.5 10.3,47.211 15.55,70.781 3.51,15.738 9.45,30.398 19.3,43.39 23.11,30.49 63.62,26.9 80.2,-7.421 16.64,-34.469 25.64,-70.797 25.23,-114.137" /><path
         inkscape:export-ydpi="204.81"
         inkscape:export-xdpi="204.81"
         id="path2207"
         style="fill:#f466ba;fill-opacity:1;fill-rule:nonzero;stroke:none"
         d="m 1683.87,658.621 c 5.19,-37.832 -10.08,-77.949 -22.73,-118.5 -3.24,-10.371 -8.74,-20.5 -19.75,-23.711 -48.86,-14.23 -78.66,-50.5 -105.77,-90 -28.23,-41.121 -69.58,-62.738 -115.15,-78.051 -17.35,-5.828 -35.48,-8.929 -51.95,-17.859 -10.92,-5.898 -20.39,-1.699 -26.61,9.559 -10.86,19.652 -8.51,47.703 5.67,64.992 5.52,6.711 11.42,13.277 15.93,20.648 12.29,20.102 31.62,33.371 47.42,50.031 50.6,53.329 91.32,113.2 125.01,178.54 18.72,36.289 34.03,75.089 63.62,104.98 6.5,6.57 13.23,12.789 21.3,17.379 17.66,10.031 35.85,4.711 45.34,-13.18 12.28,-23.129 17.58,-52.808 17.67,-104.828" /><path
         inkscape:export-ydpi="204.81"
         inkscape:export-xdpi="204.81"
         id="path2209"
         style="fill:#f466ba;fill-opacity:1;fill-rule:nonzero;stroke:none"
         d="m 952.941,466.328 c 0.2,17.41 15.555,29.871 33.657,27.332 31.722,-4.461 65.502,-44.769 64.732,-76.64 -0.31,-12.86 -6.24,-19.61 -18.84,-21.25 -33.392,-4.34 -79.939,36.871 -79.549,70.558" /><path
         inkscape:export-ydpi="204.81"
         inkscape:export-xdpi="204.81"
         id="path2213"
         style="fill:none;stroke:#f466ba;stroke-width:18.8878;stroke-linecap:round;stroke-linejoin:round;stroke-miterlimit:10;stroke-dasharray:none;stroke-opacity:1"
         d="m 1393.265,1051.559 h 469.3059" /><path
         inkscape:export-ydpi="204.81"
         inkscape:export-xdpi="204.81"
         id="path2215"
         style="fill:none;stroke:#f466ba;stroke-width:15.28;stroke-linecap:round;stroke-linejoin:round;stroke-miterlimit:10;stroke-dasharray:none;stroke-opacity:1"
         d="M 5454.489,1051.13 H 6714.644" /><text
         inkscape:export-ydpi="204.81"
         inkscape:export-xdpi="204.81"
         transform="scale(1,-1)"
         id="text2284"
         y="-1433.8724"
         x="1742.8323"
         style="font-size:680.00900000000001455px;line-height:1.25;font-family:Arial-Rounded;-inkscape-font-specification:'Arial-Rounded, Normal';fill:#ffffff;fill-opacity:1;stroke-width:17.0003;"
         xml:space="preserve"><tspan
           y="-1433.8724"
           x="1742.8323"
           style="font-style:italic;font-variant:normal;font-weight:bold;font-stretch:normal;font-size:680.00900000000001455px;font-family:'Open Sans';-inkscape-font-specification:'Open Sans, Bold Italic';font-variant-ligatures:normal;font-variant-caps:normal;font-variant-numeric:normal;font-variant-east-asian:normal;fill:#ffffff;fill-opacity:1;stroke-width:17.0003;"
           id="tspan2282"
           sodipodi:role="line">Because I Can</tspan></text><text
         inkscape:export-ydpi="204.81"
         inkscape:export-xdpi="204.81"
         xml:space="preserve"
         style="font-size:1244.30999999999994543px;line-height:1.25;font-family:Arial-Rounded;-inkscape-font-specification:'Arial-Rounded, Normal';fill:#ffffff;fill-opacity:1;stroke-width:31.1079;"
         x="1728.2288"
         y="-191.50908"
         id="text2288"
         transform="scale(1,-1)"><tspan
           sodipodi:role="line"
           id="tspan2286"
           style="font-style:italic;font-variant:normal;font-weight:bold;font-stretch:normal;font-size:1244.30999999999994543px;font-family:'Open Sans';-inkscape-font-specification:'Open Sans, Bold Italic';font-variant-ligatures:normal;font-variant-caps:normal;font-variant-numeric:normal;font-variant-east-asian:normal;fill:#ffffff;fill-opacity:1;stroke-width:31.1079;"
           x="1728.2288"
           y="-191.50908">R </tspan></text><text
         inkscape:export-ydpi="204.81"
         inkscape:export-xdpi="204.81"
         transform="scale(1,-1)"
         id="text2292"
         y="-188.57666"
         x="2365.9998"
         style="font-size:944.03200000000003911px;line-height:1.25;font-family:Arial-Rounded;-inkscape-font-specification:'Arial-Rounded, Normal';fill:#ffffff;fill-opacity:1;stroke-width:23.6009;"
         xml:space="preserve"><tspan
           y="-188.57666"
           x="2365.9998"
           style="font-style:italic;font-variant:normal;font-weight:bold;font-stretch:normal;font-size:944.03200000000003911px;font-family:'Open Sans';-inkscape-font-specification:'Open Sans, Bold Italic';font-variant-ligatures:normal;font-variant-caps:normal;font-variant-numeric:normal;font-variant-east-asian:normal;fill:#ffffff;fill-opacity:1;stroke-width:23.6009;"
           id="tspan2290"
           sodipodi:role="line">allye</tspan></text><text
         inkscape:export-ydpi="204.81"
         inkscape:export-xdpi="204.81"
         transform="scale(1,-1)"
         id="text2296"
         y="-191.50905"
         x="4584.7549"
         style="font-size:1244.30999999999994543px;line-height:1.25;font-family:Arial-Rounded;-inkscape-font-specification:'Arial-Rounded, Normal';fill:#ffffff;fill-opacity:1;stroke-width:31.1079;"
         xml:space="preserve"><tspan
           y="-191.50905"
           x="4584.7549"
           style="font-style:italic;font-variant:normal;font-weight:bold;font-stretch:normal;font-size:1244.30999999999994543px;font-family:'Open Sans';-inkscape-font-specification:'Open Sans, Bold Italic';font-variant-ligatures:normal;font-variant-caps:normal;font-variant-numeric:normal;font-variant-east-asian:normal;fill:#ffffff;fill-opacity:1;stroke-width:31.1079;"
           id="tspan2294"
           sodipodi:role="line">C</tspan></text><text
         inkscape:export-ydpi="204.81"
         inkscape:export-xdpi="204.81"
         xml:space="preserve"
         style="font-size:944.03200000000003911px;line-height:1.25;font-family:Arial-Rounded;-inkscape-font-specification:'Arial-Rounded, Normal';fill:#ffffff;fill-opacity:1;stroke-width:23.6009;"
         x="5321"
         y="-188.57672"
         id="text2300"
         transform="scale(1,-1)"><tspan
           sodipodi:role="line"
           id="tspan2298"
           style="font-style:italic;font-variant:normal;font-weight:bold;font-stretch:normal;font-size:944.03200000000003911px;font-family:'Open Sans';-inkscape-font-specification:'Open Sans, Bold Italic';font-variant-ligatures:normal;font-variant-caps:normal;font-variant-numeric:normal;font-variant-east-asian:normal;fill:#ffffff;fill-opacity:1;stroke-width:23.6009;"
           x="5321"
           y="-188.57672">lub</tspan></text><path
         inkscape:export-ydpi="204.81"
         inkscape:export-xdpi="204.81"
         d="M 2489.4447,1071.9826 H 4508.1975"
         style="fill:none;stroke:#f466ba;stroke-width:39.1737;stroke-linecap:round;stroke-linejoin:round;stroke-miterlimit:10;stroke-dasharray:none;stroke-opacity:1"
         id="path2302" /></g></g></svg>
