<?xml version="1.0" encoding="UTF-8" standalone="no"?>
<svg
   xmlns:svg="http://www.w3.org/2000/svg"
   xmlns="http://www.w3.org/2000/svg"
   height="175.75943"
   width="374.98355"
   xml:space="preserve"
   viewBox="0 0 374.98355 175.75943"
   y="0px"
   x="0px"
   id="Layer_1"
   version="1.1"><defs
   id="defs878">
	
	
	
	
	
	
	
	
	
	
	
	
	
	
</defs>
<style
   id="style823"
   type="text/css">
	.st0{fill:#F8FAFF;}
	.st1{display:none;fill:#FFFCF8;}
	.st2{fill:#1F60AC;}
</style>

<rect
   y="-395.99521"
   x="-312.51001"
   id="rect827"
   height="1000"
   width="1000"
   class="st1" />
<path
   style="stroke-width:0.855381"
   class="st2"
   d="m 152.43,138.02509 c 0.1,0.77557 -1.41,0.99508 -1.73,0.25608 l -8.52,-19.96745 -4.04,-9.47521 -7.87,-18.430927 c -0.79,-1.8365 -4.24,-2.03406 -5.4,-0.3073 l -8.46,12.599467 c -1.67,2.4877 -6.5,2.53892 -8.27,0.0878 l -3.92,-5.436357 c -1.16,-1.617 -4.38,-1.4853 -5.29,0.21951 l -13.7,25.564767 c -0.39,0.739 -1.9,0.40974 -1.69,-0.36584 L 97.06,73.461963 c 0.89,-3.24865 6.91,-3.80472 8.88,-0.81948 l 1.9,2.87549 c 1.7,2.5755 6.73,2.55355 8.38,-0.0439 l 16.19,-25.39649 c 2.04,-3.19011 8.53,-2.37063 8.98,1.14141 l 6.82,53.748957 1.34,10.44834 z"
   id="path829" /><path
   class="st2"
   d="m 173.27,153.75478 c -17.42,20.77 -42.81,28.13 -56.72,16.47 -13.91,-11.67 -11.08,-37.96 6.32,-58.71 0.21,-0.26 0.43,-0.51 0.65,-0.76 3.22,-3.73 9.3,-2.45 10.77,2.26 0.65,2.08 0.18,4.34 -1.24,5.98 -0.17,0.2 -0.35,0.4 -0.52,0.6 -11.75,14.01 -13.66,31.74 -4.26,39.61 9.38,7.87 26.5,2.9 38.25,-11.1 11.75,-14.01 13.66,-31.75 4.28,-39.62 -3.53,-2.95 -8.15,-4.1 -13.18,-3.62 -2.61,0.23 -5.32,0.91 -8.05,2.01 -2.48,0.97 -4.97,2.3 -7.38,3.95 l -4.04,-12.949997 c 3.31,-2.17 6.71,-3.93 10.08,-5.27 2.69,-1.07 5.39,-1.86 8.02,-2.38 8.9,-1.76 17.23,-0.3 23.34,4.81 13.91,11.669997 11.08,37.959997 -6.32,58.719997"
   id="path831" /><path
   class="st2"
   d="m 248.67,90.764783 c -5.56,-4.66 -15.7,-1.71 -22.65,6.58 -6.95,8.289997 -8.08,18.789997 -2.53,23.449997 5.56,4.66 15.7,1.71 22.65,-6.57 6.96,-8.31 8.09,-18.799997 2.53,-23.459997 m -5.22,21.189997 c -4.69,5.6 -11.53,7.58 -15.28,4.44 -3.75,-3.14 -2.99,-10.23 1.71,-15.82 4.69,-5.589997 11.53,-7.579997 15.28,-4.439997 3.74,3.14 2.98,10.219997 -1.71,15.819997"
   id="path833" /><path
   class="st2"
   d="m 332.17,81.254783 c -15.1,-10.08 -39.88,0.52 -55.35,23.679997 -15.46,23.17 -15.76,50.11 -0.66,60.19 15.1,10.09 39.88,-0.51 55.35,-23.67 15.46,-23.16 15.76,-50.109997 0.66,-60.199997 m -9.94,56.329997 c -10.44,15.63 -27.5,22.55 -38.11,15.46 -10.61,-7.09 -10.76,-25.5 -0.32,-41.12 10.43,-15.629997 27.5,-22.549997 38.1,-15.459997 10.61,7.089997 10.76,25.499997 0.33,41.119997"
   id="path835" /><path
   class="st2"
   d="m 170.48,84.944783 h 35.17 l -4.97,50.239997 c -0.28,2.83 1.95,5.29 4.8,5.29 2.42,0 4.46,-1.79 4.78,-4.19 l 6.76,-51.339997 28.18,-1.52 c 1.32,-0.07 2.43,-1.04 2.67,-2.34 0.32,-1.7 -0.92,-3.3 -2.65,-3.4 l -74.37,-4.53 c -2.96,-0.18 -5.6,1.87 -6.15,4.79 -0.7,3.64 2.08,7 5.78,7"
   id="path837" /><path
   class="st2"
   d="m 217.7,9.3147832 v 0 c 0.71,1.1299998 1.77,1.9999998 3.02,2.4599998 l 92.98,34.76 c 5.49,2.05 10.42,-4.1 7.21,-9.01 -2.32,-3.56 -5.77,-6.24 -9.79,-7.62 L 224.81,0.34478323 C 219.4,-1.5052168 214.66,4.4647832 217.7,9.3147832"
   id="path839" /><path
   class="st2"
   d="m 257.35,25.464783 c 0,0 19.13,108.359997 -34.45,113.399997 -1.76,0.17 -3.2,1.47 -3.49,3.21 -0.38,2.33 1.45,5.89 3.81,5.92 14.12,0.17 56.76,-8.15 50.18,-116.539997 z"
   id="path841" /><path
   class="st2"
   d="m 374.94,68.604783 v 0 c 0.76,-2.06 -8.6,-7.07 -14.54,-7.97 -5.94,-0.9 -10.72,2.51 -11.82,7.95 l -3.3,16.36 c -1.35,6.68 3.25,12.96 11.06,11.72 7.81,-1.24 17.54,-8.7 17.76,-9.23 0.46,-1.08 -0.34,-2.27 -1.52,-2.26 0,0 -7.46,6.1 -12.7,6.21 -5.24,0.11 -7.95,-4.07 -7.06,-8.5 l 0.38,-1.86 16.03,-0.39 c 0.74,-0.02 1.38,-0.52 1.56,-1.23 0.24,-0.9 -0.32,-1.83 -1.23,-2.04 l -14.92,-3.47 0.32,-1.61 c 0.73,-3.64 3.23,-6.4 7.76,-5.88 4.53,0.52 10.32,3.31 10.32,3.31 1.29,0.19 1.55,-0.4 1.9,-1.11"
   id="path843" /><polygon
   transform="translate(-312.51,-395.99522)"
   class="st2"
   points="358.79,474.77 408.51,472.35 408.51,477.2 "
   id="polygon845" /><polygon
   transform="translate(-310.51,-395.99522)"
   class="st2"
   points="400.38,495.44 400.38,500.29 312.51,497.87 "
   id="polygon847" /><polygon
   transform="translate(-312.51,-395.99522)"
   class="st2"
   points="312.51,544.71 421.14,542.29 421.14,547.14 "
   id="polygon849" /><polygon
   transform="translate(-312.51,-395.99522)"
   class="st2"
   points="353.1,564.97 435.07,562.55 435.07,567.4 "
   id="polygon851" /><polygon
   transform="translate(-312.51,-395.99522)"
   class="st2"
   points="523.17,562.46 602.5,560.03 602.5,564.88 "
   id="polygon853" />
</svg>
